# xmcd
#
# Track frame offsets: 
#        150
#        21720
#        41060
#        57812
#        90507
#        117012
#        139365
#        157727
#        181385
#        195272
#
# Disc length: 2901 seconds
#
# Revision: 3
# Processed by: cddbd v1.5.2PL0 Copyright (c) Steve Scherf et al.
# Submitted via: ExactAudioCopy v0.99pb4
#
DISCID=7e0b530a
DTITLE=Various Artist - The Heart Of Soul )
DYEAR=1989
DGENRE=Blues
TTITLE0=Harold Melvin and The Blue Notes - The Love I Lost
TTITLE1=Harold Melvin and The Blue Notes - If You Don't Know Me By Now
TTITLE2=Harold Melvin and The Blue Notes - Don't Leave Me This Way
TTITLE3=Harold Melvin and The Blue Notes (Featuring Billy Paul) - Wake U
TTITLE3=p Everybody
TTITLE4=Harold Melvin and The Blue Notes  (Featuring Billy Paul)/ Me And
TTITLE4=Mrs Jones
TTITLE5=The Three Degrees - TSOP
TTITLE6=The Three Degrees - My Simple Heart
TTITLE7=The Three Degrees/ Woman In Love
TTITLE8=The Three Degrees - When WillI See You Again
TTITLE9=Ensamble - Love Train
EXTD=live in concert, 1989\nmore info
EXTT0=
EXTT1=
EXTT2=
EXTT3=
EXTT4=
EXTT5=
EXTT6=
EXTT7=
EXTT8=
EXTT9=
PLAYORDER=
